# xmcd
#
# Track frame offsets:
#	150
#	17424
#	36633
#	59820
#	75139
#	87668
#	101378
#	115711
#	130337
#	140598
#	152340
#	165526
#
# Disc length: 2395 seconds
#
# Revision: 0
# Processed by: cddbd v1.4PL0 Copyright (c) Steve Scherf et al.
# Submitted via: dBpowerAMP V4.0
#
DISCID=9309590c
DTITLE=Newton, Mark - No Boundaries
DYEAR=2003
DGENRE=Bluegrass
TTITLE0=Blues For Breakfast
TTITLE1=Cabin In The Trees
TTITLE2=A Beautiful Home
TTITLE3=Heartaches And Teardrops
TTITLE4=Cindy
TTITLE5=Train On The Island
TTITLE6=Losing You
TTITLE7=The Note That Said Goodbye
TTITLE8=Linedrive
TTITLE9=Snow Covered Meadow
TTITLE10=Railroad Dollar
TTITLE11=Only Way I Know
EXTD=
EXTT0=
EXTT1=
EXTT2=
EXTT3=
EXTT4=
EXTT5=
EXTT6=
EXTT7=
EXTT8=
EXTT9=
EXTT10=
EXTT11=
PLAYORDER=
